<?xml version="1.0" encoding="UTF-8"?>
<!DOCTYPE svg PUBLIC "-//W3C//DTD SVG 1.1//EN" "http://www.w3.org/Graphics/SVG/1.1/DTD/svg11.dtd">
<!-- Creator: CorelDRAW 2021 (64 Bit) -->
<svg xmlns="http://www.w3.org/2000/svg" xml:space="preserve" width="52.9759mm" height="58.5192mm" version="1.1" style="shape-rendering:geometricPrecision; text-rendering:geometricPrecision; image-rendering:optimizeQuality; fill-rule:evenodd; clip-rule:evenodd"
viewBox="0 0 1083.13 1196.47"
 xmlns:xlink="http://www.w3.org/1999/xlink"
 xmlns:xodm="http://www.corel.com/coreldraw/odm/2003">
 <defs>
  <style type="text/css">
   <![CDATA[
    .str0 {stroke:#0C0100;stroke-width:1.8;stroke-miterlimit:22.9256}
    .str1 {stroke:#0C0100;stroke-width:3.61;stroke-miterlimit:22.9256}
    .fil34 {fill:none}
    .fil17 {fill:#0C0100}
    .fil24 {fill:#1A0702}
    .fil29 {fill:#301609}
    .fil31 {fill:#544F4B}
    .fil12 {fill:#574316}
    .fil4 {fill:#592D0A}
    .fil10 {fill:#5A2918}
    .fil30 {fill:#674318}
    .fil11 {fill:#85451C}
    .fil32 {fill:#85451C}
    .fil28 {fill:#908E8D}
    .fil25 {fill:#B98317}
    .fil20 {fill:#C4C6C8}
    .fil27 {fill:#C78A58}
    .fil16 {fill:#C87A26}
    .fil18 {fill:#C8C8C9}
    .fil23 {fill:#CD8A4B}
    .fil15 {fill:#D48953}
    .fil22 {fill:#D9DDE2}
    .fil7 {fill:#E09762}
    .fil9 {fill:#E2F1F8}
    .fil6 {fill:#E4942A}
    .fil19 {fill:#E8E9E9}
    .fil0 {fill:#EBAD72}
    .fil26 {fill:#F6EADA}
    .fil8 {fill:#FCC547}
    .fil13 {fill:#FCC94A}
    .fil5 {fill:#FCFBFC}
    .fil3 {fill:#FDAC3B}
    .fil1 {fill:#FDB841}
    .fil21 {fill:#FE9D34}
    .fil2 {fill:#FEBD45}
    .fil14 {fill:#FEDC5A}
    .fil33 {fill:#FFEFDF}
   ]]>
  </style>
 </defs>
 <g id="Camada_x0020_1">
  <metadata id="CorelCorpID_0Corel-Layer"/>
  <g id="_2519082332848">
   <path class="fil0" d="M445.17 1106.6c-12.17,0 -44.41,-4.11 -52.78,-15.75 15.88,3.69 23.52,6.35 41.09,6.08 29.15,-0.44 82.04,-11.03 112.9,-17.88 3.87,-0.86 7.16,-2.2 9.95,-0.37 -27.68,10.47 -78.44,27.91 -111.16,27.91zm-113.1 -79.51c3.57,-8.06 7.41,-34.32 4.9,-43.93 -1.59,-6.12 -3.79,-11.99 -6.35,-18.19 -2.63,-6.34 -5.44,-12 -7.44,-18.72 -1.49,-6.73 -16.56,-22.86 -16.74,-34.96 -1.83,-1.42 -3.37,-2.88 -4.96,-4.52 4.31,-3.39 59.15,-11.45 69.45,-13.39 83.9,-15.84 191.83,-35.27 271.09,-60.93 19.22,-6.22 40.77,-16.14 58.89,-24.1 31.41,-13.79 54.93,-25.66 84.68,-40.3 7.6,-3.74 20.39,-11.92 27.21,-14.13 -3.29,9.8 -9.77,23.04 -14.2,32.99 -5.21,11.71 -9.92,22.67 -14.99,34.14 -22.45,50.8 -30.66,84.59 -71.25,123.88 -43.71,42.3 -144.72,78.56 -202.45,90.73 -57.25,12.08 -121.86,12.45 -180.17,2.57 -0.33,-12.58 0.65,-3.17 2.35,-11.15zm588.45 -320.02c-3.89,7.54 -16.96,25.32 -23.43,28.75 0.52,-5.16 0.86,-2.52 4.89,-6.77l14.66 -19.2c10.62,-18.02 -3.54,-18.95 -16.56,-21.81 0.11,-9.2 -1.45,-25.53 0.91,-33.59 3,-10.27 15.55,-24.57 23.39,-29.21 14.27,-8.44 28.63,-8.15 44.91,-6.3l-5.15 1.43c-2.8,0.12 -6.83,-1.19 -15.09,-0.28l9.33 2.68c3.07,0.94 5.23,2.11 7.84,3.74 4.75,2.98 8.43,4.91 12.6,10.65 20.86,28.71 -42.27,73.73 -58.28,69.91zm-153.82 -176.61l-1.46 1.62c-0.07,0.23 -0.12,1.66 -0.16,3.08 -0.56,20.64 -1.52,39.25 -5.11,59.84l-11.76 61.4 -7.55 -0.43c-1.05,1.97 0.17,1.03 -2.2,1.78 -20.46,-0.09 -42.1,1.63 -61.92,3.54 -9.48,0.92 -19.95,1.76 -29.12,3.51 -4.32,0.83 -8.22,2.49 -13.41,3.1 -27.98,3.3 -37.63,6.56 -65.12,14.25 -7.66,2.14 -44.64,14.75 -47.44,14.89l-17.5 11.4c-19.71,13.53 -30.87,24.26 -12.39,39.77 1.39,1.17 2.5,2.11 3.32,3.63 1.81,3.38 -0.9,1.44 2.01,4.98l0.88 -3.12c10.26,-0.32 28.37,8.63 31.05,15.7 4.15,10.93 -11.55,22.75 -22.83,22.99 -15.01,0.32 -26.23,-8.83 -39.76,-0.18 -11.29,7.22 -8.07,16.08 -25.7,20.96 -32.63,9.03 -77,-4.06 -82.19,-27.47 -3.63,-16.39 13.15,-29.9 18.92,-49.51 -14.8,2.06 -27.02,6.61 -40.34,10.81 -8.54,2.69 -30.71,9.38 -36.62,12.8 -5.32,5.92 -14.35,2.32 -21.03,3.73 -10.51,-19.69 -20.26,-44.91 -29.98,-66.41l-18.7 -45.3c-2.65,-8.41 -5.01,-15.39 -7.91,-23.99 -2.8,-8.3 -4.19,-17.19 -6.48,-24.58l-7.19 -23.74c-1.9,2.62 -2.1,16.5 -3.24,21.25 -1.53,6.4 -5.9,15.41 -6.79,20.18 -1.06,5.63 5.29,13.08 7.62,18.44 14.09,32.34 53.11,102.87 53.69,134.13 0.33,17.59 -0.33,35.22 -0.38,52.56 -0.19,62.77 -13.73,208.23 -7.81,256.07 2.2,17.74 4.95,26.58 15.44,38.43 9.11,10.28 49.59,32.19 66.9,40.65 25.08,12.26 53.17,22.42 85.05,22.24 59.02,-0.33 123.28,-20.23 171.51,-42.09 31.49,-14.28 110.96,-54.22 140.1,-74.87 19.19,-13.59 52.25,-33.85 65.52,-53.69 1.98,-2.96 3.07,-5.86 4.69,-9.31 6.22,-13.22 17.23,-44.44 21.98,-58.67l39.23 -122.03c4.26,-13.7 8.1,-27.93 12.59,-40.98 37.75,-0.97 58.11,-1.5 82.98,-31.69 15.77,-19.15 32.11,-44.49 38.1,-77.78 5.48,-30.4 2.18,-74.79 -15.88,-94.05 -19.07,-20.34 -73.22,-13.31 -89.19,-6.11l-3.22 1.92c-2.26,8.18 -2.99,41.03 -3.63,52.1 -0.61,10.69 -4.86,9.99 -12.29,15.63 -5.56,4.23 -11.11,8.51 -16.68,11.5 -3.94,-11.16 -10.52,-44.01 -18.38,-67.18 -7.19,-21.19 -15.87,-41.39 -24.06,-62.49l-32.19 -2.84 -1.03 10.8c-7.62,2.53 -8.26,-2.05 -12.93,-1.16z"/>
   <path class="fil1" d="M691.74 451.92c9.34,-2.12 112.39,17.95 134.47,21.95 14.78,2.68 29.39,6.86 44.01,8.75l7.94 -87.09 50.01 17.73c8.03,3.12 16.8,6.07 25.61,9.26 34.72,12.56 24.76,1.48 27.23,46.79 0.49,9.06 1.61,26.54 4.42,34.02 2.51,6.67 17.14,11.06 24.12,14.2 7,3.15 21.18,10.65 26.97,11.5 -0.7,-10.96 0.91,-25.36 0.89,-37.19 -0.15,-72.63 -15.64,-154.35 -49.9,-216.25 -11.33,-20.48 -26.23,-38.88 -41.1,-54.72l-17.44 -19.96c-14.42,-14.52 -41.18,-46.23 -56.27,-58.24 -7.2,-5.73 -21.38,-19.94 -31.18,-24.39 -53.67,2.47 -87.44,31.88 -124.86,60.89l-25.71 19.82c-20.18,15.12 -37.71,20.88 -33.3,-17.13 4.03,-34.75 20.52,-57.34 38.18,-84.31 4.21,-6.42 8.68,-12.34 12.82,-17.45 3.84,-4.75 11.81,-11.74 13.33,-17.22l-120.98 -15.13c-2.05,3.39 -1.31,2.7 -4.84,5.13 -3.97,2.73 -2.51,2.28 -4.94,4.28 -6.75,5.55 0.48,-4.06 -10,8.75 -4.59,5.61 -13.75,12.62 -14.44,13.64l-8.26 11.58c-12.15,19.02 -12.43,27.88 -14.6,51.67 -2.07,22.67 -5.47,47.23 2.98,69.92 6.4,17.18 23.82,31.4 37.36,39.62 14.55,8.84 40.35,19.85 47.07,28.8 9.72,12.94 18.18,36.79 22.32,54.86 8.57,37.35 8.79,52.75 26.1,88.28 3.11,6.39 10.84,22.03 11.97,27.63z"/>
   <path class="fil2" d="M384.38 102.79c-3.49,4.24 -16.21,40.33 -18.51,48.05 -5.5,18.47 -6.64,36.61 -12.66,54.01 -9.76,28.24 -27.78,49.29 -48.28,68.53 -3.57,3.34 -5.31,3.79 -8.77,7.61l-16.68 17.18c-3.21,3 -5.68,4.81 -8.41,7.91 -17.04,19.4 -19,28.05 -25.34,57.75 -7.88,36.91 -16.02,74.18 -22.29,110.27 27.94,-4.35 55.6,-11.35 84.22,-15.74 30.83,-4.72 61.37,-5.41 92.43,-7.81 37.31,-2.89 160.22,-4.65 197.79,-3.26 -2.45,-31.74 38.56,-143.68 -37.43,-175.81 -7.49,-3.17 -19.55,-8.41 -26.08,-12.59 -9.74,-6.23 -13.37,-9.66 -18.04,-19.38 -9.51,-19.78 -1.27,-49.8 2.28,-67.38l11.67 -64.42c5.3,-25.64 3.11,-31.84 -0.07,-51.61 -0.86,-5.32 -5.05,-13.8 -8.93,-17.74l-3.92 -2.9c-0.21,-0.14 -0.52,-0.31 -0.73,-0.46l-2.07 -1.55c-11.07,-8.61 -28.41,-4.15 -39.38,-0.9l-6.64 0.87 -2.34 4.14c-8.14,0.57 -6.92,0.76 -13.66,4.97l-7.9 5.99c-4.17,4.07 -6.47,4.24 -11.39,7.41 -1.94,1.25 -1.53,0.91 -2.54,1.99 -3.55,3.75 -0.01,1.7 -7.1,7.01 -0.86,0.64 -1.34,0.96 -1.97,1.48 -0.08,0.07 -2.23,2.16 -2.33,2.27 -0.16,0.18 -0.37,0.46 -0.53,0.64 -4.75,5.32 -3.42,2.76 -7.37,5.6 -2.28,1.64 -2.71,2.96 -4.37,4.86l-9.38 9.39c-2.43,2.16 -2.57,1.73 -5.07,4.29l-2.13 2.48c-5.13,7.1 -1.17,5.5 -6.07,6.81z"/>
   <path class="fil3" d="M120.6 501.56c-8.78,2.26 -81.66,43.26 -93.23,50.43 -7.17,4.45 -26.25,13.88 -21.66,24.12 7.07,15.77 94.73,23.36 118.26,25.28l39.66 2.84c6.38,-0.87 2.78,2.54 4.91,-2.48l-4.8 -7.72 -10.68 -0.61c-21.71,-1.82 -43,-3.84 -64.13,-6.85 -9.76,-1.39 -52.01,-6.04 -54.19,-16.38 -3.33,-15.8 59.23,-21.76 66.5,-22.75 53.74,-7.34 103.32,-14.2 157.31,-20.15 13.94,-1.54 26.62,-2.86 40.36,-4.17 12.99,-1.25 28.63,-3.59 41.9,-3.6 11.53,-4.36 165.46,-11.06 187.31,-10.94 33.09,0.18 66.1,-0.38 99.33,0 95.52,1.09 271.8,13.83 359.83,40.62 17.07,5.2 38.73,12.62 54.86,19.88 4.43,1.99 13.63,5.84 14.68,10.51 0.02,0.02 4.07,0.04 1.58,7.76 -3.61,11.2 -37.48,16.3 -47.75,18.38l0.87 4.25c11.19,0.26 29.94,-3.61 40.84,-6.39 10.9,-2.78 28.42,-6.91 25.96,-20.23 -2.95,-15.95 -32.79,-42.54 -41.18,-50.8 -5.43,-1.32 -51.44,-21.46 -53.79,-26.23 -6.01,-12.21 -4.49,-55.99 -6.16,-72.83 -15.01,-4.09 -32.66,-11.86 -48.56,-17.26 -9.5,-3.22 -40.7,-16.3 -48.42,-16.89l-7.74 86.31c-7.75,-0.1 -34.05,-6.33 -43.23,-8.32 -80.04,-17.36 -152.9,-28.18 -235.67,-27.81 -48.42,0.21 -162.47,-0.1 -205.7,4.78 -16.05,1.81 -32.48,2.97 -48.8,4.3 -59.89,4.87 -118.94,18.13 -177.41,32.48 -13.87,3.4 -28.64,7.91 -41.06,10.49z"/>
   <path class="fil4" d="M340.81 519.51l7.04 3.44c15.64,-3.31 45.42,-3.85 62.81,-5 44.25,-2.94 24.67,-3.56 50.87,14.26 22.62,-7.11 19.33,-18 43.24,-18.03 18.35,-0.02 39.19,-0.04 57.95,0.56l53.04 0.82c27.55,0.46 54.35,0.47 81.79,0.71 10.38,0.09 49.45,-0.57 57.3,4.75 3.85,2.6 8.67,5.53 11.85,9.43 4.67,-0.9 5.31,3.69 12.93,1.16l1.03 -10.8 32.19 2.84c8.19,21.11 16.87,41.3 24.06,62.49 7.86,23.18 14.44,56.03 18.38,67.18 5.57,-3 11.11,-7.27 16.68,-11.5 7.43,-5.64 11.68,-4.94 12.29,-15.63 0.64,-11.07 1.37,-43.92 3.63,-52.1l3.22 -1.92c15.98,-7.21 70.12,-14.23 89.19,6.11 18.05,19.26 21.35,63.65 15.88,94.05 -5.99,33.29 -22.33,58.63 -38.1,77.78 -24.87,30.19 -45.22,30.72 -82.98,31.69 -4.49,13.05 -8.33,27.27 -12.59,40.98l-39.23 122.03c-4.75,14.23 -15.76,45.45 -21.98,58.67 -1.62,3.45 -2.71,6.35 -4.69,9.31 -13.28,19.85 -46.33,40.1 -65.52,53.69 -29.15,20.64 -108.62,60.59 -140.1,74.87 -48.23,21.86 -112.48,41.77 -171.51,42.09 -31.87,0.18 -59.96,-9.98 -85.05,-22.24 -17.31,-8.46 -57.79,-30.37 -66.9,-40.65 -10.49,-11.85 -13.25,-20.68 -15.44,-38.43 -5.93,-47.84 7.61,-193.3 7.81,-256.07 0.05,-17.33 0.71,-34.97 0.38,-52.56 -0.58,-31.26 -39.6,-101.79 -53.69,-134.13 -2.34,-5.36 -8.68,-12.82 -7.62,-18.44 0.9,-4.77 5.26,-13.79 6.79,-20.18 1.14,-4.75 1.34,-18.63 3.24,-21.25 7.89,-24.89 50.64,-25.14 79.05,-21.74 15.51,1.85 29.99,3.95 45.07,6.49 13.73,2.31 29.79,6.12 43.24,7.46 -2.34,-17.35 -4.64,-11.03 -12.77,-19.3l-24.01 -27.2c-4.07,2.73 0.96,0.72 -2.97,0.4 -4.1,-0.33 -10.1,-1.55 -16.12,-0.38 -5.5,1.06 0.93,0.43 -5.17,1.66 -6.32,1.28 -19.17,1.06 -24.05,1.27 -4.48,0.19 -0.16,-0.2 -4.31,0.63 -1.89,0.38 -3.96,0.75 -5.84,1.16 -5.22,1.11 -7.85,0.93 -13.53,1.26 -5.39,0.31 -6.76,1.7 -12.78,1.16 -15.14,-1.35 -1.27,1.37 -22.65,3.45 -5.84,0.57 -7.95,1.66 -12.47,1.88 -13.33,0.65 -2.62,-1.33 -15.46,1.65 -1.57,0.36 -1.52,0.33 -3.13,0.44l-44.7 4.78c-5.85,0.64 -6.78,1.71 -10.46,0.61l0.71 3.41c-0.45,7.59 9.52,34.11 14.06,37.95 2.04,3.63 1.73,-4.74 1.73,4.66l-6.69 0c1.54,-0.54 -1.01,-1.09 2.12,-0.02l-4.78 2.22 10.68 0.61 4.8 7.72c0.19,0.29 0.41,0.68 0.54,0.91l1.4 2.66c1.22,2.76 0.47,0.74 1.19,3.54 22.18,47.37 47.88,94.77 69.11,143.52 10.4,23.9 0.88,167.73 -0.07,204.57 -0.89,34.83 -2.05,68.49 -2.13,104 -0.1,45.7 4.01,55.03 29.58,76.54 8.15,6.85 20.82,14.96 31.31,21.23 11.73,7.01 22.4,13.06 34.73,19.08 41.79,20.43 82.39,15.74 88.03,18.68l17.83 0c0.58,-0.3 40.12,-4.4 47.04,-5.91 14.71,-3.21 27.5,-7.46 40.91,-11.77 13.52,-4.34 26.15,-9.12 39.29,-14.39 35.26,-14.13 75.8,-32.74 107.89,-51.02 38.89,-22.15 86.89,-48 119.35,-79.29 2.52,-2.43 4.81,-4.46 6.4,-6.46 21.46,-27.02 38.69,-109.99 44.15,-114.82 1.78,-1.57 6.54,-3.37 8.96,-4.97 3.07,-2.03 4.54,-3.36 7.03,-5.84 4.59,-4.58 7.98,-7.73 12.17,-13.58 14.31,-19.98 18.42,-58.27 18.23,-87.15 27.11,0.37 44.68,-6.24 59.68,-19.54 15.31,-13.57 27.21,-22.75 38.45,-39.84 18.45,-28.06 34.9,-87.77 23.5,-126.97 -0.34,-3.03 -0.09,-1.19 -0.61,-2.95 -0.08,-0.25 -0.39,-0.45 -0.45,-1 -0.07,-0.57 -0.36,-0.67 -0.54,-1l-0.87 -4.25c-2.57,-3.21 -1.58,-0.62 -2.28,-5.07 0.4,-5.79 -8.94,-21.8 -12.11,-26.59l-16.49 -22.73c13.65,4.33 26.42,7.96 40.01,13.27l26.99 11.54c2.01,1.21 5.36,3.96 7.08,4.57 1.15,0.99 2.41,-0.38 2.42,2.26 0.35,-1.46 0.85,0.53 0.56,-3.39 -1.05,-4.67 -10.25,-8.51 -14.68,-10.51 -16.13,-7.26 -37.79,-14.68 -54.86,-19.88 -88.03,-26.79 -264.31,-39.52 -359.83,-40.62 -33.23,-0.38 -66.24,0.17 -99.33,-0 -21.85,-0.12 -175.78,6.57 -187.31,10.94z"/>
   <path class="fil5" d="M416.25 893.91l-19.81 3.26c1.07,3.99 -0.34,2.33 5.7,1.14 -0.25,1.06 -0.92,60 0.71,63.6 0.15,0.34 0.77,2.02 1.03,1.38 0.07,-0.18 0.4,0.41 0.6,0.62 -3.55,1.12 -1.9,1.11 -6.08,1.41 4.81,1.6 1.81,0.48 4.06,2.56l-8 -0.01 3.57 3.33c16.8,-1.3 33.23,-2.97 49.66,-4.67l37.26 -3.82c11.68,-1.4 8.38,-0.76 9.99,1.23 -4.44,4.64 -19.1,3.4 -25.51,4.13 -17.63,2 -66.38,7.88 -78.61,7.49l-0.23 3.25c-1.67,4.01 -2.26,40.32 -2.26,48.23 5.37,3.4 4.54,-1.45 4.52,9.62 -3.68,0.09 -14.15,1.32 -17.16,3.77 47.17,-1.8 61.71,0.49 112.03,-7.11 62.89,-9.49 140.99,-40.2 194.55,-73.05l18.02 -12.34c8.31,-7.55 9.69,-38.04 9.66,-51.56l-0.7 -4.67c-15.92,8.34 -34.59,14.99 -52.52,22.01l-40.66 15.46c-8.38,3.12 -9.78,4.95 -13.42,3.21 1.09,-3.64 -1.1,-1.88 4.27,-4.15l41.8 -15.6c8.19,-3.17 41.01,-15.13 45.34,-18.8 -1.06,-3.55 -2.15,-2.06 2.74,-2.24 -0.28,-0.24 -0.67,-0.49 -0.91,-0.63 -0.22,-0.13 -0.62,-0.43 -0.89,-0.57 -2.77,-1.47 -1.86,0.88 -2.6,-1.05 -0.13,-0.34 -0.56,-0.1 -0.76,-0.07l3.74 -2.45 -1.17 -52.58c-2.44,-5.89 3.21,3.94 -1.14,-1.39l-2.11 -4.1c-0.09,-1.96 0.82,-2.3 -0.28,-4.93 -10.39,3.53 -20.46,8.02 -30.63,11.56 -40.39,14.06 -54.76,18.77 -98.75,30.99 -30.59,8.5 -113.11,23.66 -145.04,27.53z"/>
   <path class="fil2" d="M362.98 93.58l-19 22.56c-25.47,33.28 -30.25,39.48 -40.89,81.91 -4.69,18.69 -10.39,59.69 -32.35,42.9 -14.02,-10.71 -13.01,-43.08 -15.32,-60.94l-0.85 -3.45c-4.09,3.55 -8.85,10 -12.79,14.99 -52.77,66.87 -84.27,115.06 -103.83,204.68 -5.83,26.69 -15.23,67.64 -15.53,95.02l-0.19 7.11 97.93 -23.67c2.6,-6.54 4.32,-21.09 5.88,-28.71 7,-34.21 16.39,-84.17 25.79,-115.85 4.09,-13.78 21.05,-29.28 31.54,-39.78l18.4 -17.8c25,-19.97 48.58,-54.76 54.47,-87.02 6.04,-33.06 3.51,-23.35 14.78,-56.3l15.19 -37.51c1.23,-2.86 1.93,-3.81 2.97,-6.41l0.99 -5.27c-0.01,-0.09 -0.06,-0.39 -0.16,-0.56 -8.66,8.67 -12.88,9.73 -27.03,14.12z"/>
   <path class="fil6" d="M394.92 75.75l0.21 4.15 24.9 -23.26c23.38,-19.69 64.16,-51.04 99.41,-29.25 40.25,24.89 12.56,103.6 4.98,149.86 -1.93,11.77 -5.84,31.99 -4.81,43.61 2.88,32.28 45.48,42.58 62.54,54.57 26.72,18.78 32.98,46.9 32.7,85.6 -0.11,15.16 -5.9,65.03 -7.51,86.1l34.48 -0.01c1.56,-16.77 0.12,-41.54 -0.87,-58.14 -0.59,-9.94 -1.1,-18.96 -2.57,-28.66 -1.23,-8.1 -5.23,-19.46 -3.8,-27.05 6.68,11.89 7.98,42.23 8.6,54.63 1.02,20.22 1.86,39.36 1.34,60.5 13.81,0.47 34.31,0.37 47.23,3.52 -1.13,-5.59 -8.86,-21.23 -11.97,-27.63 -17.31,-35.53 -17.53,-50.93 -26.1,-88.28 -4.15,-18.07 -12.6,-41.92 -22.32,-54.86 -6.72,-8.94 -32.52,-19.96 -47.07,-28.8 -13.54,-8.22 -30.96,-22.44 -37.36,-39.62 -8.45,-22.69 -5.05,-47.25 -2.98,-69.92 2.17,-23.79 2.45,-32.65 14.6,-51.67l8.26 -11.58c0.68,-1.02 9.85,-8.03 14.44,-13.64 10.47,-12.81 3.24,-3.2 10,-8.75 2.43,-2 0.97,-1.55 4.94,-4.28 3.53,-2.43 2.79,-1.74 4.84,-5.13 -5.71,-2.83 -3.32,-3.25 -10.98,-10.32 -46.05,-42.46 -109.99,-42.09 -159.43,-4.12 -10.28,7.89 -34.7,33.41 -35.67,42.43z"/>
   <path class="fil7" d="M347.85 522.96c-3.98,0.46 -2.16,-0.43 -3.19,1.97l22.28 24.18c3.66,3.44 4.79,6.26 8.73,8.26 9.63,-13.79 13.58,-19.84 39.15,-16.6 16.09,2.04 30.88,9.99 40.88,18.84 23.41,20.68 25.41,58.71 22.58,95.92 -2.52,33.1 -7.03,72.01 -23.63,94.77 -8.51,11.68 -23.45,16.76 -38.64,20.92 -8.72,2.39 -17.73,3.77 -26.99,2.63 -6.98,-0.86 -16.82,-5.66 -19.2,-10.52 -6.51,4.75 -9.95,17.77 -5.59,25.52 4.3,-3.78 8.36,-0.44 17.61,1.06 47.81,7.75 56.16,-13.38 92.47,-21.2 14.73,-3.18 34.03,0.77 45.6,-1.7 -3.74,-5.91 -15.6,-7.88 -23.05,-10.18 -2.91,-3.54 -0.2,-1.6 -2.01,-4.98 -0.82,-1.52 -1.92,-2.46 -3.32,-3.63 -18.48,-15.51 -7.32,-26.24 12.39,-39.77l17.5 -11.4c-1,-11.14 7.04,4.06 -2.49,-16.02 -13.7,-28.89 -25.68,-48.13 -25.14,-82.83 0.3,-19.16 11.11,-16.04 17.96,-26.18 -1.77,-2.46 -0.74,0.2 0.42,-3.66 5.35,-17.76 19.21,-32.98 34.64,-42.52 2.98,-1.84 5.42,-3.61 8.61,-5.51 6.27,-3.73 6.45,-1.95 7.29,-5.59 -18.76,-0.6 -39.61,-0.58 -57.95,-0.56 -23.92,0.03 -20.62,10.91 -43.24,18.03 -26.2,-17.82 -6.62,-17.19 -50.87,-14.26 -17.39,1.16 -47.17,1.69 -62.81,5z"/>
   <path class="fil8" d="M724.26 63.62c-1.32,4.1 -4.06,5.77 -6.62,9.05 -24.62,31.4 -53.01,67.06 -57.97,109.33 -3.06,26.16 5.2,33.17 24.44,19.58 6.29,-4.44 11.17,-8.53 17.23,-13.17 2.93,-2.24 5.8,-4.72 8.39,-6.85 43.2,-35.47 70.77,-56.6 131.78,-65.89 -8.33,-30.09 -16.81,-46.36 -40.55,-57.73 -28.36,-13.59 -55.35,-8.93 -76.69,5.7z"/>
   <path class="fil9" d="M601.1 661.96c-45.2,-23.53 -34.93,-92.22 15.19,-101.65 40.76,-7.67 75.24,30.68 62.31,70.41 -4.92,15.11 -10.48,18.45 -18.4,26.82l48.61 -5.57c1.43,-16.49 -0.62,-40.75 -3.78,-56.4 -4.27,-21.13 -8.57,-28.64 -26.11,-35.95 -60.02,-24.98 -116.76,-16.82 -168.61,19.61 -6.6,4.64 -11.93,7.57 -12.32,17.88 -1.21,31.7 9.4,48.35 20.2,71.77 3.11,6.75 5.96,14.67 9.94,20.55l39.67 -13.06c13.26,-3.83 28.49,-6.32 41.19,-9.99l-7.89 -4.44z"/>
   <path class="fil7" d="M208.99 579.5l7.19 23.74c2.28,7.4 3.67,16.28 6.48,24.58 2.91,8.6 5.26,15.58 7.91,23.99l18.7 45.3c9.72,21.5 19.47,46.72 29.98,66.41 6.68,-1.41 15.71,2.19 21.03,-3.73l-7.5 1.73c-2.87,-10.47 -11.1,-26.15 -15.53,-37.4 -4.27,-10.84 -12.2,-28.98 -13.06,-40.72 -3.17,-5.38 0.45,-39.7 2.96,-48.23 4.58,-15.57 12.09,-26.24 22.79,-33.31 29.79,-19.68 89.2,-5.6 90.23,1.38 2.56,-6.56 -1.32,-6.96 -2.35,-13.45 -0.54,-3.4 -2.17,-10.8 -1.31,-13.78l1.14 -2.32 -1.31 -1.99c-13.46,-1.35 -29.51,-5.15 -43.24,-7.46 -15.07,-2.54 -29.55,-4.63 -45.07,-6.49 -28.41,-3.4 -71.16,-3.16 -79.05,21.74z"/>
   <path class="fil10" d="M306.44 911.3c0.53,-3.5 0.49,-2.14 4.86,-2.94l77.88 -12c4.63,-0.8 9.21,-1.63 13.97,-2.43 2.01,-0.34 5.39,-1.29 7.12,-1.45 2.01,-0.19 1.3,-0.3 3.19,0.03 3.57,0.64 0.73,-1.75 2.79,1.4 31.94,-3.87 114.45,-19.02 145.04,-27.53 43.99,-12.23 58.36,-16.93 98.75,-30.99 10.17,-3.54 20.25,-8.03 30.63,-11.56l43 -20.25c3.08,-2.53 6.31,-2.73 9.09,-5.9 -1.76,-2.5 -1.64,-0.43 1.13,-2.28l23.73 -11.54c4.44,-1.98 10.15,-5.17 14.67,-7.46 4.41,-2.23 8.43,-5.5 14.43,-6.4 -1.29,10.41 -20.21,58.02 -25.61,70.04 -1.4,3.12 -2.49,5.27 -4.35,8.6l-44.44 32.7c-2.23,1.01 -1.09,2.36 -4.28,0.3l-6.76 3.77 -1.36 10.96c0.03,13.51 -1.35,44 -9.66,51.56l-18.02 12.34c-53.56,32.85 -131.66,63.56 -194.55,73.05 -50.32,7.6 -64.85,5.31 -112.03,7.11l-8.79 -0.04c-11.4,-2.58 -22.04,-2.2 -34.88,-5.71l5.82 -9.87c2.07,-4.35 2.91,-6.43 4.46,-10.96l-1.11 -0.92c-4.66,4.41 -4.73,11.77 -9.11,14.16 -1.7,7.98 -2.68,-1.43 -2.35,11.15 58.32,9.88 122.92,9.5 180.17,-2.57 57.73,-12.18 158.73,-48.44 202.45,-90.73 40.6,-39.28 48.8,-73.08 71.25,-123.88 5.07,-11.47 9.78,-22.44 14.99,-34.14 4.43,-9.95 10.92,-23.19 14.2,-32.99 -6.82,2.21 -19.6,10.39 -27.21,14.13 -29.75,14.64 -53.27,26.51 -84.68,40.3 -18.11,7.95 -39.67,17.87 -58.89,24.1 -79.25,25.66 -187.19,45.1 -271.09,60.93 -10.3,1.94 -65.14,10 -69.45,13.39 1.59,1.64 3.13,3.1 4.96,4.52z"/>
   <g>
    <path class="fil11" d="M596.41 613.99c0,0 0,0 0,0l0 0zm23.98 -52.53c-67.49,8.61 -58.32,111.97 12.92,104.75 7.67,-0.78 13.34,-2.83 19.4,-6.54 7.13,-4.36 8.51,-5.27 14.65,-12.21 29.9,-33.78 1.56,-92.2 -46.97,-86.01z"/>
   </g>
   <path class="fil12" d="M-0 572.06l0 2.02c5.55,8.17 2.04,7.6 12.63,12.73 6.07,2.94 12.36,4.8 19.26,6.41 13.98,3.27 29.6,5.55 44.1,7.28 31.86,3.81 63.29,6.43 95.68,8.34 -0.72,-2.8 0.03,-0.79 -1.19,-3.54l-1.4 -2.66c-0.12,-0.23 -0.34,-0.62 -0.54,-0.91 -2.13,5.03 1.47,1.61 -4.91,2.48l-39.66 -2.84c-23.53,-1.92 -111.2,-9.51 -118.26,-25.28 -4.59,-10.24 14.48,-19.67 21.66,-24.12 11.57,-7.17 84.45,-48.17 93.23,-50.43 2.04,-4.48 -0.3,-5.2 1.82,-10.33 0.3,-27.37 9.7,-68.33 15.53,-95.02 19.56,-89.61 51.06,-137.81 103.83,-204.68 3.94,-4.99 8.71,-11.44 12.79,-14.99l2.94 -2.46c-1.2,-20.78 12.69,-55.61 23.74,-64.67 17.37,-14.24 49.16,-13.63 73.74,-14.83l7.99 -1.02c14.15,-4.39 18.37,-5.45 27.03,-14.12 2.25,-3.44 0.22,-1.54 4.92,-3.71 0.97,-9.02 25.39,-34.53 35.67,-42.43 49.44,-37.97 113.38,-38.34 159.43,4.12 7.66,7.06 5.27,7.49 10.98,10.32l120.98 15.13 2.27 0.72c21.35,-14.63 48.33,-19.29 76.69,-5.7 23.74,11.37 32.22,27.65 40.55,57.73l0.01 2.64c9.81,4.44 23.98,18.65 31.18,24.39 15.09,12.01 41.84,43.71 56.27,58.24l17.44 19.96c14.87,15.85 29.77,34.25 41.1,54.72 34.26,61.9 49.76,143.62 49.9,216.25 0.02,11.84 -1.59,26.24 -0.89,37.19l0.61 3.51c8.39,8.26 38.23,34.86 41.18,50.8 2.46,13.31 -15.06,17.45 -25.96,20.23 -10.9,2.77 -29.65,6.64 -40.84,6.39 0.18,0.33 0.48,0.43 0.54,1 0.06,0.56 0.38,0.76 0.45,1 0.53,1.76 0.28,-0.08 0.61,2.95 13.85,-2.69 26.36,-3.5 39.91,-7.05 6.22,-1.63 12.36,-3.66 17.32,-6.03 8.16,-3.9 7.64,-4.09 12.78,-10.54l0 -9.15c-0.79,-1.09 -0.33,-0.26 -1.41,-2.33 -2.99,-5.73 -1.5,-5.15 -6.9,-12.96 -7.47,-10.81 -23.74,-29.31 -33.91,-36.05 -0.88,-10.96 1.03,-44.4 -0.43,-67.97 -3.56,-57.48 -13.96,-113.82 -36.85,-164.84 -21.86,-48.72 -35.63,-56.82 -62.81,-90.26l-23.73 -26.54c-9.23,-10.88 -31.17,-31 -42,-42.12 -9.09,-9.33 -27.17,-21.63 -27.91,-22.34 -4.63,-4.43 -2.81,-24.67 -21.67,-46.1 -20.07,-22.8 -64.02,-35.04 -98.19,-13.97 -7.06,4.35 -20.58,0.28 -29.56,-0.86l-90.05 -11.56c-9.75,-1.52 -8.64,-5.12 -19.55,-14.31 -34.77,-29.28 -64.85,-26.85 -70.15,-29.94l-12.48 0c-2.7,1.54 -17.27,3.06 -22.25,4.29 -7.51,1.85 -14.69,4.01 -21.34,6.66 -65.04,25.87 -59.27,63.06 -90.29,75.65 -27.93,11.34 -63.46,-2.85 -92,18.95 -14.68,11.21 -22.37,37.3 -25.48,57.42 -2.19,14.2 -9.32,17.17 -21.85,33.16 -4.59,5.86 -7.93,10.55 -12.11,15.94 -21.25,27.42 -48.26,71.13 -62.25,103.7 -18.48,43.02 -38.71,133.72 -40.31,181.77 -30.07,16.77 -63.1,32.78 -92.67,50.96 -24.61,15.13 -16.12,10.2 -25,23.58z"/>
   <path class="fil13" d="M257.51 174.09c0.9,20.02 1.76,53.08 13.72,64.11 3.21,2.96 9.98,5.85 15.17,2.63 3.02,-1.87 5.16,-8.88 6.58,-13.3 11.64,-36.22 10.45,-61.02 34.66,-92.59 2.4,-3.14 2.41,-3.66 4.2,-6.38l26.94 -32.53 -3.79 -1.43c-24.58,1.2 -56.36,0.59 -73.74,14.83 -11.05,9.06 -24.94,43.88 -23.74,64.67z"/>
   <path class="fil7" d="M714.28 649.5l-1.31 4.74 22.07 -0.83c5.23,0.23 4.52,-0.97 5.61,2.57l7.55 0.43 11.76 -61.4c3.59,-20.59 4.55,-39.2 5.11,-59.84 0.04,-1.41 0.09,-2.85 0.16,-3.08l1.46 -1.62c-3.18,-3.91 -8,-6.83 -11.85,-9.43 -7.85,-5.32 -46.92,-4.66 -57.3,-4.75 -27.44,-0.24 -54.23,-0.25 -81.79,-0.71 5.29,3.84 25.06,2.05 31.55,2.04 21.24,-0.03 10,0.04 22.71,6.57 39.6,20.34 54.96,27.65 49.11,72.54 -2.27,17.41 -4.8,37.03 -4.92,55.27 1.23,-0.82 1.33,1.17 0.06,-2.49z"/>
   <path class="fil9" d="M360.77 733.83l-2.29 -1.12c-13.91,-1.7 -29,-9.29 -33.54,-18.92 -18.49,-39.18 7.95,-76.96 48.5,-68.33 9.91,2.11 12.15,6.23 18,8.74 0.05,-6.62 -0.52,-14.48 -3.57,-19.73 -12.01,-4.3 -48.61,-3.59 -61.63,-1.03 -9.22,1.82 -17.4,5.02 -24.89,9.1 -60.32,32.93 -19.55,68.47 -6,113.65l65.43 -22.35z"/>
   <path class="fil0" d="M511.77 572.02c15.05,-3.5 51,-43.29 134.64,-26.55 49.49,9.9 60.45,21 64.98,63.45 1.1,10.29 0.89,32.33 2.89,40.57 1.27,3.66 1.17,1.67 -0.06,2.49 0.12,-18.24 2.66,-37.86 4.92,-55.27 5.85,-44.89 -9.51,-52.2 -49.11,-72.54 -12.71,-6.53 -1.48,-6.6 -22.71,-6.57 -6.48,0.01 -26.26,1.8 -31.55,-2.04l-53.04 -0.82c-0.84,3.64 -1.02,1.86 -7.29,5.59 -3.19,1.9 -5.63,3.66 -8.61,5.51 -15.42,9.54 -29.29,24.76 -34.64,42.52 -1.16,3.85 -2.19,1.19 -0.42,3.66z"/>
   <path class="fil14" d="M395.13 79.91c-3.56,4.55 -8.59,15.75 -10.75,22.89 4.9,-1.31 0.94,0.29 6.07,-6.81l2.13 -2.48c2.5,-2.55 2.65,-2.13 5.07,-4.29l9.38 -9.39c1.66,-1.9 2.09,-3.21 4.37,-4.86 3.94,-2.84 2.62,-0.27 7.37,-5.6 0.16,-0.18 0.37,-0.46 0.53,-0.64 0.1,-0.11 2.26,-2.2 2.33,-2.27 0.63,-0.52 1.11,-0.84 1.97,-1.48 7.09,-5.31 3.55,-3.27 7.1,-7.01 1.02,-1.08 0.61,-0.74 2.54,-1.99 4.92,-3.16 7.22,-3.34 11.39,-7.41l7.9 -5.99c6.74,-4.21 5.52,-4.4 13.66,-4.97l2.34 -4.14 6.64 -0.87c10.98,-3.25 28.32,-7.71 39.38,0.9l2.07 1.55c0.21,0.15 0.52,0.32 0.73,0.46l3.92 2.9c3.88,3.94 8.07,12.42 8.93,17.74 3.18,19.77 5.37,25.97 0.07,51.61l-11.67 64.42c-3.55,17.58 -11.78,47.6 -2.28,67.38 4.67,9.72 8.3,13.14 18.04,19.38 6.52,4.18 18.59,9.42 26.08,12.59 75.99,32.13 34.98,144.07 37.43,175.81l9.45 -0.17c1.62,-21.06 7.4,-70.93 7.51,-86.1 0.28,-38.71 -5.98,-66.83 -32.7,-85.6 -17.06,-11.99 -59.66,-22.28 -62.54,-54.57 -1.03,-11.62 2.88,-31.84 4.81,-43.61 7.58,-46.26 35.27,-124.97 -4.98,-149.86 -35.24,-21.79 -76.02,9.56 -99.41,29.25l-24.9 23.26z"/>
   <path class="fil15" d="M920.52 707.07c16.01,3.82 79.14,-41.21 58.28,-69.91 -4.17,-5.74 -7.85,-7.67 -12.6,-10.65 -2.61,-1.63 -4.77,-2.8 -7.84,-3.74l-9.33 -2.68c-19.03,1.63 -35.34,11.61 -42.93,29.09 8.13,-1.25 20.75,-4.01 28.72,-3.71 10.42,0.39 15.5,9.25 10.44,18.34l-0.43 -6.06c0.2,-17.17 -22.95,-8 -40.24,-6.6 -3.46,9.09 -3.53,24.96 -2.22,35.6 14.96,0.54 21.58,5.08 18.15,20.33z"/>
   <path class="fil0" d="M264.19 683.41c0.25,-23.58 24.16,-40.16 42.6,-48.27 31.92,-14.05 60.11,-4.67 80.81,-5.93 1.71,-9.23 -7.93,-44.28 -9.94,-55.5l-1.14 2.32c-0.86,2.98 0.77,10.38 1.31,13.78 1.02,6.49 4.9,6.89 2.35,13.45 -1.03,-6.98 -60.44,-21.06 -90.23,-1.38 -10.71,7.07 -18.21,17.74 -22.79,33.31 -2.51,8.53 -6.14,42.86 -2.96,48.23z"/>
   <path class="fil16" d="M390.01 79.46c0.1,0.17 0.15,0.47 0.16,0.56l-0.99 5.27c-1.04,2.6 -1.74,3.55 -2.97,6.41l-15.19 37.51c-11.28,32.95 -8.74,23.24 -14.78,56.3 -5.89,32.26 -29.47,67.05 -54.47,87.02l-18.4 17.8c-10.49,10.49 -27.45,25.99 -31.54,39.78 -9.4,31.68 -18.79,81.63 -25.79,115.85 -1.56,7.63 -3.28,22.18 -5.88,28.71l-97.93 23.67 0.19 -7.11c-2.12,5.13 0.22,5.85 -1.82,10.33 12.42,-2.57 27.2,-7.08 41.06,-10.49 58.46,-14.35 117.52,-27.61 177.41,-32.48 16.31,-1.33 32.75,-2.48 48.8,-4.3 43.23,-4.88 157.28,-4.57 205.7,-4.78 82.77,-0.37 155.63,10.45 235.67,27.81 9.18,1.99 35.48,8.23 43.23,8.32l7.74 -86.31c7.72,0.59 38.92,13.66 48.42,16.89 15.9,5.4 33.55,13.16 48.56,17.26 1.67,16.85 0.15,60.63 6.16,72.83 2.35,4.78 48.36,24.92 53.79,26.23l-0.61 -3.51c-5.79,-0.86 -19.97,-8.35 -26.97,-11.5 -6.98,-3.14 -21.61,-7.53 -24.12,-14.2 -2.81,-7.48 -3.93,-24.96 -4.42,-34.02 -2.47,-45.31 7.49,-34.24 -27.23,-46.79 -8.82,-3.19 -17.59,-6.13 -25.61,-9.26l-50.01 -17.73 -7.94 87.09c-14.62,-1.89 -29.23,-6.07 -44.01,-8.75 -22.09,-4 -125.13,-24.07 -134.47,-21.95 -12.92,-3.14 -33.42,-3.05 -47.23,-3.52 0.52,-21.15 -0.32,-40.28 -1.34,-60.5 -0.62,-12.39 -1.92,-42.73 -8.6,-54.63 -1.44,7.59 2.57,18.95 3.8,27.05 1.47,9.71 1.98,18.72 2.57,28.66 1,16.6 2.44,41.38 0.87,58.14l-34.48 0.01 -9.45 0.17c-37.57,-1.39 -160.47,0.37 -197.79,3.26 -31.07,2.41 -61.61,3.09 -92.43,7.81 -28.62,4.38 -56.28,11.38 -84.22,15.74 6.27,-36.09 14.41,-73.36 22.29,-110.27 6.34,-29.7 8.3,-38.35 25.34,-57.75 2.73,-3.11 5.2,-4.92 8.41,-7.91l16.68 -17.18c3.46,-3.83 5.2,-4.27 8.77,-7.61 20.51,-19.24 38.52,-40.29 48.28,-68.53 6.01,-17.4 7.15,-35.55 12.66,-54.01 2.3,-7.72 15.02,-43.81 18.51,-48.05 2.15,-7.14 7.19,-18.34 10.75,-22.89l-0.21 -4.15c-4.7,2.17 -2.67,0.27 -4.92,3.71z"/>
   <path class="fil17" d="M358.48 732.71c2.5,-2.56 1.82,-0.31 -1.41,-1.85 -16.16,-7.68 -28.44,-0.55 -35.19,-34.99 -7.94,-40.54 32.12,-58 58.83,-46.06 13,5.81 11.83,9.37 12.76,24.62 0.68,11.21 0.7,23.95 -3.24,33.58 -3.1,7.57 -7.89,20.49 -11.83,25.43 -9.17,0.38 -14.12,-2.15 -17.63,0.4l-65.43 22.35c-13.55,-45.17 -54.32,-80.72 6,-113.65 7.49,-4.09 15.67,-7.29 24.89,-9.1 13.02,-2.56 49.62,-3.28 61.63,1.03 3.05,5.25 3.62,13.11 3.57,19.73 -5.85,-2.51 -8.08,-6.63 -18,-8.74 -40.54,-8.63 -66.99,29.16 -48.5,68.33 4.54,9.63 19.64,17.23 33.54,18.92zm-18.92 -207.49l24.01 27.2c8.14,8.28 10.44,1.95 12.77,19.3l1.31 1.99c2.01,11.22 11.65,46.27 9.94,55.5 -20.7,1.27 -48.89,-8.11 -80.81,5.93 -18.44,8.11 -42.35,24.69 -42.6,48.27 0.87,11.74 8.8,29.88 13.06,40.72 4.43,11.24 12.66,26.93 15.53,37.4l7.5 -1.73c5.9,-3.42 28.08,-10.11 36.62,-12.8 13.32,-4.2 25.54,-8.75 40.34,-10.81 -5.76,19.61 -22.55,33.12 -18.92,49.51 5.19,23.41 49.56,36.5 82.19,27.47 17.63,-4.88 14.4,-13.74 25.7,-20.96 13.53,-8.65 24.75,0.5 39.76,0.18 11.28,-0.24 26.98,-12.05 22.83,-22.99 -2.68,-7.07 -20.79,-16.02 -31.05,-15.7l-0.88 3.12c7.45,2.3 19.3,4.27 23.05,10.18 10.14,2.49 4.31,11.78 -1.68,16.47 -21.92,17.17 -41.24,-19.06 -66.13,18 -11.2,16.68 -73.74,14.13 -87.88,-12.63 -4.36,-7.75 -0.92,-20.77 5.59,-25.52 0.15,-3.61 12.05,-26.73 15.45,-32.22 2.31,-3.73 4.53,-4.69 7.13,-9.21 7.45,-12.95 6.05,-40.6 4.82,-57.11 -1.8,-24.12 -7.7,-59.3 -13.5,-83.38 -2.57,-10.68 -8,-23.86 -8.04,-24.04 -3.94,-2 -5.07,-4.82 -8.73,-8.26l-22.28 -24.18c-1.13,-0.84 -5.26,-4.04 -5.1,0.29z"/>
   <path class="fil11" d="M355.2 663.41c3.64,-1.13 4.73,-1.24 8.91,0.63 11.52,5.15 17.14,2.29 22.86,11.06 18.21,27.89 -26.39,47.33 -36.14,19.88 -1.04,-2.93 -0.92,-7.01 -1.9,-9.82 -0.07,-0.21 -11.31,-16.31 6.26,-21.75zm3.28 69.3l2.29 1.12c3.51,-2.55 8.46,-0.01 17.63,-0.4 3.94,-4.94 8.73,-17.86 11.83,-25.43 3.94,-9.63 3.92,-22.36 3.24,-33.58 -0.92,-15.25 0.25,-18.81 -12.76,-24.62 -26.72,-11.93 -66.78,5.52 -58.83,46.06 6.75,34.43 19.02,27.31 35.19,34.99 3.23,1.54 3.92,-0.72 1.41,1.85z"/>
   <path class="fil17" d="M620.39 561.46c48.53,-6.19 76.87,52.23 46.97,86.01 -6.14,6.94 -7.52,7.85 -14.65,12.21 -6.06,3.7 -11.72,5.76 -19.4,6.54 -71.24,7.22 -80.41,-96.14 -12.92,-104.75zm-11.4 104.94c-12.7,3.68 -27.93,6.16 -41.19,9.99l-39.67 13.06c-3.98,-5.88 -6.83,-13.8 -9.94,-20.55 -10.8,-23.42 -21.4,-40.08 -20.2,-71.77 0.39,-10.31 5.73,-13.24 12.32,-17.88 51.85,-36.43 108.59,-44.59 168.61,-19.61 17.54,7.3 21.84,14.82 26.11,35.95 3.17,15.65 5.21,39.91 3.78,56.4l-48.61 5.57c7.91,-8.37 13.48,-11.72 18.4,-26.82 12.92,-39.73 -21.56,-78.07 -62.31,-70.41 -50.11,9.43 -60.39,78.11 -15.19,101.65l7.89 4.44zm-97.22 -94.38c-6.85,10.14 -17.66,7.02 -17.96,26.18 -0.54,34.7 11.44,53.94 25.14,82.83 9.52,20.08 1.49,4.88 2.49,16.02 2.81,-0.14 39.78,-12.74 47.44,-14.89 27.49,-7.69 37.14,-10.95 65.12,-14.25 5.19,-0.61 9.09,-2.27 13.41,-3.1 9.17,-1.76 19.64,-2.6 29.12,-3.51 19.82,-1.91 41.47,-3.63 61.92,-3.54 2.37,-0.75 1.15,0.19 2.2,-1.78 -1.09,-3.54 -0.39,-2.33 -5.61,-2.57l-22.07 0.83 1.31 -4.74c-2,-8.25 -1.79,-30.28 -2.89,-40.57 -4.53,-42.45 -15.49,-53.55 -64.98,-63.45 -83.64,-16.73 -119.59,23.05 -134.64,26.55z"/>
   <path class="fil3" d="M160.68 586.56c-4.54,-3.84 -14.51,-30.36 -14.06,-37.95 -3.73,-3.44 2.08,-3.72 -13.14,-1.48l-43.65 6.31c-14.24,2.08 -45.57,5.71 -50.87,15.59 8.02,11.43 83.61,17.6 104.86,19.37 4.24,0.35 10.4,1.76 13.87,0.43 4.64,-1.77 -0.05,4.11 2.99,-2.26z"/>
   <path class="fil0" d="M364.23 788.85c14.14,26.76 76.67,29.31 87.88,12.63 24.89,-37.07 44.21,-0.84 66.13,-18 5.99,-4.69 11.82,-13.98 1.68,-16.47 -11.58,2.48 -30.87,-1.47 -45.6,1.7 -36.31,7.83 -44.66,28.96 -92.47,21.2 -9.25,-1.5 -13.31,-4.85 -17.61,-1.06z"/>
   <path class="fil18" d="M742.78 797.69c-2.78,3.16 -6.02,3.36 -9.09,5.9 -0.73,3.43 1.46,2.39 -4.39,4.22l5.77 -0.27c-1.57,2.93 1.53,1.85 -4.76,2.32l4.81 1.65c-3.48,1.71 -1.68,-2.09 -1.38,9.83 0.19,7.67 -1.76,35.68 1.67,41.25 -5.54,3 -4.12,0.54 -4.29,5.01 -5.36,2.24 1.77,-1.64 -0.8,2.76l3.62 0.66c5,-2.88 7.63,-5.12 12.1,-8.15 18.6,-12.6 17.32,-10.61 26.68,-31.76 4.01,-9.06 19.32,-49.45 21.04,-57.61 -12.9,3.83 -40.56,21.84 -50.97,24.19z"/>
   <path class="fil19" d="M690.68 823.83c1.09,2.63 0.19,2.97 0.28,4.93l2.11 4.1c4.35,5.33 -1.29,-4.5 1.14,1.39l1.17 52.58 -3.74 2.45c0.19,-0.03 0.63,-0.26 0.76,0.07 0.74,1.93 -0.17,-0.42 2.6,1.05 0.27,0.14 0.66,0.44 0.89,0.57 0.24,0.13 0.63,0.39 0.91,0.63 -4.89,0.17 -3.8,-1.31 -2.74,2.24 5.15,-1.3 13.01,-4.52 17.25,-8.43l6.76 -3.77 15.87 -10.63 -3.62 -0.66c2.57,-4.39 -4.56,-0.52 0.8,-2.76 0.16,-4.47 -1.25,-2.02 4.29,-5.01 -3.43,-5.57 -1.48,-33.58 -1.67,-41.25 -0.3,-11.93 -2.1,-8.13 1.38,-9.83l-4.81 -1.65c6.29,-0.47 3.19,0.61 4.76,-2.32l-5.77 0.27c5.85,-1.83 3.66,-0.79 4.39,-4.22l-43 20.25z"/>
   <path class="fil20" d="M355.08 973.33c6.48,-0.24 16.4,0.9 21.56,-1.2l-15.35 -1.21 -0.27 -52.4c-0.3,-2.93 -0.86,-3.61 -0.9,-7.25 -0.01,-0.52 0.27,-3.55 0.44,-4.04l0.78 -1.53c0.15,-0.26 0.81,-0.99 1.08,-1.26 -6.27,-0.01 -1.63,0.21 -3.45,-1.45l-50.9 7.91c-0.2,7.56 14.29,30.09 18.31,35.13 7.4,9.29 10.64,14.01 20.49,21.64 3.53,2.73 4.89,3.32 8.22,5.67z"/>
   <path class="fil12" d="M153.06 593.42l4.78 -2.22c-3.13,-1.07 -0.57,-0.52 -2.12,0.02l6.69 0c0,-9.4 0.31,-1.03 -1.73,-4.66 -3.03,6.37 1.66,0.49 -2.99,2.26 -3.47,1.33 -9.63,-0.08 -13.87,-0.43 -21.25,-1.77 -96.84,-7.93 -104.86,-19.37 5.3,-9.88 36.63,-13.51 50.87,-15.59l43.65 -6.31c15.22,-2.24 9.41,-1.96 13.14,1.48l-0.71 -3.41c3.68,1.1 4.61,0.03 10.46,-0.61l44.7 -4.78c1.62,-0.12 1.57,-0.08 3.13,-0.44 12.84,-2.98 2.13,-1.01 15.46,-1.65 4.53,-0.22 6.63,-1.31 12.47,-1.88 21.38,-2.08 7.51,-4.79 22.65,-3.45 6.03,0.54 7.4,-0.85 12.78,-1.16 5.69,-0.33 8.31,-0.15 13.53,-1.26 1.88,-0.4 3.95,-0.77 5.84,-1.16 4.15,-0.84 -0.17,-0.45 4.31,-0.63 4.87,-0.2 17.73,0.01 24.05,-1.27 6.09,-1.23 -0.33,-0.6 5.17,-1.66 6.03,-1.16 12.02,0.05 16.12,0.38 3.93,0.32 -1.1,2.33 2.97,-0.4 -0.16,-4.33 3.96,-1.13 5.1,-0.29 1.03,-2.4 -0.79,-1.51 3.19,-1.97l-7.04 -3.44c-13.27,0.01 -28.9,2.36 -41.9,3.6 -13.75,1.32 -26.43,2.64 -40.36,4.17 -53.99,5.94 -103.57,12.8 -157.31,20.15 -7.28,0.99 -69.83,6.95 -66.5,22.75 2.18,10.34 44.43,14.99 54.19,16.38 21.13,3.01 42.42,5.03 64.13,6.85z"/>
   <path class="fil21" d="M1008.36 600.66c15.37,0.12 36.78,-6.8 45.72,-13.7l-0.25 -6.25c-1.72,-0.61 -5.07,-3.36 -7.08,-4.57l-26.99 -11.54c-13.59,-5.31 -26.36,-8.93 -40.01,-13.27l16.49 22.73c3.17,4.79 12.51,20.81 12.11,26.59z"/>
   <path class="fil22" d="M358.97 902.98c1.82,1.66 -2.83,1.43 3.45,1.45 -0.28,0.28 -0.93,1 -1.08,1.26l-0.78 1.53c-0.16,0.49 -0.45,3.52 -0.44,4.04 0.04,3.64 0.6,4.32 0.9,7.25l0.27 52.4 15.35 1.21c5.28,0.59 13.2,0.55 17.49,-1.05l-7.38 -0.43 -3.63 -6.24c-0.04,-0.18 -0.08,-0.51 -0.11,-0.69l-0.84 -60.93c-0.02,-0.33 -0.18,-0.52 -0.09,-0.75 2.44,-0.06 2.04,1.72 1.17,-1.18 8.45,0 2.28,0.51 4.66,-2.26l-28.94 4.39z"/>
   <path class="fil18" d="M354.09 978.25l-11.8 35.6c-1.55,4.53 -2.39,6.61 -4.46,10.96l-5.82 9.87c12.84,3.51 23.48,3.14 34.88,5.71 2.63,-3.34 -3.11,-2.58 2.84,-2.83 -0.78,-0.55 -0.25,2.55 -0.84,-2.44l-0.21 -43.15c-0.35,-13.28 0.4,-10.5 3.46,-12.17l-5.73 -0.15c0.02,-0.04 0.76,-2.72 1.28,-3.28 -5.59,0.47 -9.96,-0.03 -13.6,1.87z"/>
   <path class="fil19" d="M387.91 898.59c-2.38,2.77 3.78,2.26 -4.66,2.26 0.87,2.9 1.27,1.13 -1.17,1.18 -0.09,0.24 0.07,0.42 0.09,0.75l0.84 60.93c0.03,0.18 0.07,0.51 0.11,0.69l3.63 6.24 7.38 0.43 3.89 0.13 -3.57 -3.33 8 0.01c-2.25,-2.08 0.75,-0.96 -4.06,-2.56 4.18,-0.3 2.54,-0.29 6.08,-1.41 -0.2,-0.2 -0.53,-0.8 -0.6,-0.62 -0.25,0.64 -0.87,-1.04 -1.03,-1.38 -1.63,-3.59 -0.95,-62.54 -0.71,-63.6 -6.04,1.18 -4.63,2.84 -5.7,-1.14l-8.53 1.42z"/>
   <path class="fil22" d="M367.69 976.39c-0.52,0.56 -1.26,3.24 -1.28,3.28l5.73 0.15c-3.06,1.66 -3.8,-1.11 -3.46,12.17l0.21 43.15c0.58,4.99 0.06,1.89 0.84,2.44 -5.95,0.25 -0.21,-0.52 -2.84,2.83l8.79 0.04c3.01,-2.45 13.47,-3.69 17.16,-3.77 0.02,-11.07 0.85,-6.22 -4.52,-9.62 0,-7.91 0.59,-44.22 2.26,-48.23l0.23 -3.25 -23.11 0.82z"/>
   <path class="fil23" d="M445.17 1106.6c32.72,0 83.48,-17.43 111.16,-27.91 -2.79,-1.84 -6.08,-0.49 -9.95,0.37 -30.86,6.85 -83.75,17.44 -112.9,17.88 -17.56,0.26 -25.2,-2.39 -41.09,-6.08 8.37,11.64 40.61,15.75 52.78,15.75z"/>
   <path class="fil24" d="M353.86 665.68c13.39,-6.88 22.49,15.6 8.29,20.19 -12.71,4.11 -21.94,-13.18 -8.29,-20.19zm1.35 -2.27c-17.58,5.44 -6.33,21.54 -6.26,21.75 0.97,2.8 0.86,6.89 1.9,9.82 9.75,27.45 54.35,8.01 36.14,-19.88 -5.72,-8.77 -11.35,-5.9 -22.86,-11.06 -4.18,-1.87 -5.27,-1.75 -8.91,-0.63z"/>
   <path class="fil25" d="M841.52 118.29l-0.01 -2.64c-61,9.29 -88.58,30.42 -131.78,65.89 -2.59,2.13 -5.46,4.61 -8.39,6.85 -6.06,4.64 -10.95,8.73 -17.23,13.17 -19.24,13.6 -27.5,6.58 -24.44,-19.58 4.95,-42.27 33.35,-77.93 57.97,-109.33 2.57,-3.28 5.3,-4.95 6.62,-9.05l-2.27 -0.72c-1.52,5.48 -9.49,12.47 -13.33,17.22 -4.14,5.12 -8.61,11.03 -12.82,17.45 -17.67,26.97 -34.15,49.56 -38.18,84.31 -4.41,38.01 13.11,32.24 33.3,17.13l25.71 -19.82c37.42,-29.01 71.18,-58.42 124.86,-60.89z"/>
   <path class="fil24" d="M603.44 585.19c17.52,-3.48 23.21,25.22 5.09,29.36 -19.01,4.34 -28.16,-24.78 -5.09,-29.36zm-7.03 28.8c0,0 0,0 0,0z"/>
   <path class="fil26" d="M603.44 585.19c-23.07,4.58 -13.92,33.7 5.09,29.36 18.12,-4.14 12.44,-32.84 -5.09,-29.36z"/>
   <path class="fil27" d="M332.07 1027.09c4.38,-2.39 4.45,-9.74 9.11,-14.16 1.81,-10.51 10.89,-26.96 11.54,-38.46 -3.23,-2.71 -5.97,-4.11 -8.59,-6.48 -13.97,-12.64 -14.45,-15.73 -18.7,-19.97 -1.12,-1.12 -0.97,-0.83 -2.25,-1.77 2,6.72 4.82,12.37 7.44,18.72 2.57,6.2 4.76,12.06 6.35,18.19 2.51,9.61 -1.34,35.88 -4.9,43.93z"/>
   <path class="fil28" d="M398.02 971.21l-3.89 -0.13c-4.29,1.6 -12.21,1.64 -17.49,1.05 -5.16,2.1 -15.08,0.97 -21.56,1.2l-0.99 4.93c3.64,-1.89 8.01,-1.4 13.6,-1.87l23.11 -0.82c12.23,0.39 60.97,-5.49 78.61,-7.49 6.42,-0.73 21.07,0.51 25.51,-4.13 -1.6,-1.99 1.69,-2.63 -9.99,-1.23l-37.26 3.82c-16.43,1.7 -32.86,3.36 -49.66,4.67z"/>
   <path class="fil25" d="M257.51 174.09l-2.94 2.46 0.85 3.45c2.31,17.87 1.31,50.23 15.32,60.94 21.96,16.78 27.66,-24.21 32.35,-42.9 10.64,-42.42 15.41,-48.63 40.89,-81.91l19 -22.56 -7.99 1.02 3.79 1.43 -26.94 32.53c-1.78,2.72 -1.79,3.24 -4.2,6.38 -24.21,31.57 -23.02,56.37 -34.66,92.59 -1.42,4.43 -3.56,11.44 -6.58,13.3 -5.2,3.22 -11.96,0.33 -15.17,-2.63 -11.96,-11.03 -12.82,-44.09 -13.72,-64.11z"/>
   <path class="fil29" d="M920.52 707.07c3.44,-15.25 -3.19,-19.8 -18.15,-20.33 -1.31,-10.63 -1.25,-26.51 2.22,-35.6 17.29,-1.4 40.43,-10.57 40.24,6.6l0.43 6.06c5.06,-9.09 -0.02,-17.95 -10.44,-18.34 -7.96,-0.3 -20.58,2.47 -28.72,3.71 7.59,-17.48 23.9,-27.46 42.93,-29.09 8.26,-0.91 12.29,0.4 15.09,0.28l5.15 -1.43c-16.28,-1.85 -30.64,-2.14 -44.91,6.3 -7.83,4.63 -20.38,18.94 -23.39,29.21 -2.36,8.06 -0.79,24.39 -0.91,33.59 13.02,2.86 27.18,3.79 16.56,21.81l-14.66 19.2c-4.02,4.24 -4.37,1.6 -4.89,6.77 6.48,-3.44 19.55,-21.21 23.43,-28.75z"/>
   <path class="fil28" d="M694.05 893.85c-4.33,3.67 -37.15,15.62 -45.34,18.8l-41.8 15.6c-5.37,2.28 -3.18,0.52 -4.27,4.15 3.65,1.74 5.04,-0.09 13.42,-3.21l40.66 -15.46c17.92,-7.02 36.6,-13.67 52.52,-22.01l0.7 4.67 1.36 -10.96c-4.23,3.9 -12.09,7.13 -17.25,8.43z"/>
   <path class="fil24" d="M306.44 911.3c0.18,12.09 15.25,28.23 16.74,34.96 1.27,0.94 1.12,0.65 2.25,1.77 4.25,4.24 4.73,7.33 18.7,19.97 2.62,2.37 5.35,3.77 8.59,6.48 -0.64,11.5 -9.73,27.95 -11.54,38.46l1.11 0.92 11.8 -35.6 0.99 -4.93c-3.33,-2.34 -4.69,-2.93 -8.22,-5.67 -9.85,-7.62 -13.09,-12.35 -20.49,-21.64 -4.02,-5.04 -18.52,-27.57 -18.31,-35.13l50.9 -7.91 28.94 -4.39 8.53 -1.42 19.81 -3.26c-2.06,-3.16 0.78,-0.77 -2.79,-1.4 -1.88,-0.34 -1.17,-0.22 -3.19,-0.03 -1.73,0.16 -5.11,1.11 -7.12,1.45 -4.76,0.8 -9.34,1.63 -13.97,2.43l-77.88 12c-4.37,0.8 -4.33,-0.56 -4.86,2.94z"/>
   <path class="fil26" d="M353.86 665.68c-13.65,7.01 -4.42,24.3 8.29,20.19 14.2,-4.59 5.1,-27.07 -8.29,-20.19z"/>
   <path class="fil24" d="M742.78 797.69c10.41,-2.35 38.07,-20.36 50.97,-24.19 -1.73,8.16 -17.04,48.55 -21.04,57.61 -9.36,21.16 -8.08,19.16 -26.68,31.76 -4.47,3.03 -7.1,5.26 -12.1,8.15l-15.87 10.63c3.19,2.07 2.04,0.71 4.28,-0.3l44.44 -32.7c1.86,-3.33 2.95,-5.48 4.35,-8.6 5.4,-12.02 24.32,-59.63 25.61,-70.04 -5.99,0.89 -10.02,4.17 -14.43,6.4 -4.52,2.29 -10.24,5.48 -14.67,7.46l-23.73 11.54c-2.77,1.85 -2.89,-0.22 -1.13,2.28z"/>
   <path class="fil30" d="M1053.84 580.71l0.25 6.25c-8.94,6.9 -30.35,13.82 -45.72,13.7 0.7,4.45 -0.28,1.85 2.28,5.07 10.27,-2.08 44.14,-7.18 47.75,-18.38 2.49,-7.73 -1.56,-7.75 -1.58,-7.76 0.29,3.93 -0.21,1.94 -0.56,3.39 -0.01,-2.64 -1.27,-1.27 -2.42,-2.26z"/>
   <path class="fil26" d="M603.19 588.65c-20.35,4.04 -12.28,29.72 4.49,25.89 15.98,-3.65 10.97,-28.96 -4.49,-25.89z"/>
   <path class="fil31" d="M607 661.29l2.71 -1.17c-0.61,-3.18 0.12,-0.04 -2.01,-1.33l-0.7 2.51z"/>
   <ellipse class="fil32 str0" cx="626.83" cy="613.43" rx="54.52" ry="54.03"/>
   <circle class="fil17 str0" cx="617.7" cy="618.73" r="22.89"/>
   <circle class="fil33 str0" cx="605.28" cy="601.97" r="13.84"/>
   <ellipse class="fil32 str0" cx="367.18" cy="689.27" rx="49.79" ry="45.4"/>
   <ellipse class="fil17 str0" cx="359.75" cy="693.41" rx="20.58" ry="18.72"/>
   <ellipse class="fil33 str0" cx="348.58" cy="679.7" rx="12.44" ry="11.32"/>
   <path class="fil0" d="M375.67 557.37c0.04,0.18 5.47,13.36 8.04,24.04 5.8,24.08 11.7,59.26 13.5,83.38 1.23,16.51 2.63,44.16 -4.82,57.11 -2.6,4.51 -4.82,5.48 -7.13,9.21 -3.4,5.49 -15.3,28.61 -15.45,32.22 2.39,4.86 12.22,9.65 19.2,10.52 9.26,1.14 18.27,-0.24 26.99,-2.63 15.2,-4.16 30.13,-9.24 38.64,-20.92 16.6,-22.76 21.11,-61.68 23.63,-94.77 2.83,-37.21 0.82,-75.24 -22.58,-95.92 -10.01,-8.84 -24.79,-16.8 -40.88,-18.84 -25.57,-3.24 -29.52,2.81 -39.15,16.6z"/>
   <path class="fil34 str1" d="M379.88 735.21c4.45,-5.45 8.91,-10.9 11.44,-14.73 2.54,-3.83 3.15,-6.04 3.95,-9.85 0.8,-3.82 1.77,-9.24 1.63,-19.41 -0.13,-10.18 -1.38,-25.11 -2.62,-40.04"/>
  </g>
 </g>
</svg>
